<svg xmlns="http://www.w3.org/2000/svg" width="210mm" height="210mm" viewBox="0 0 210 210"><g style="opacity:1"><path d="M.276.468h209.423v209.234H.276Z" style="baseline-shift:baseline;display:inline;overflow:visible;vector-effect:none;stop-color:#000;stop-opacity:1"/><path d="M.043.234v209.702h209.89V.234ZM.51.701h208.955V209.47H.51Z" style="baseline-shift:baseline;display:inline;overflow:visible;vector-effect:none;stop-color:#000;stop-opacity:1"/></g><g style="opacity:1"><path d="M119.354 28.042q16.12 0 26.279.662 10.379.442 16.12 2.871 5.742 2.43 8.171 8.17 2.43 5.742 2.871 15.9.663 10.159.663 26.5v46.375q0 16.12-.663 26.5-.442 10.158-2.87 15.9-2.43 5.741-8.172 8.17-5.741 2.43-15.9 3.092-10.158.441-26.5.441H90.647q-16.12 0-26.5-.441-10.158-.663-15.9-3.092-5.741-2.429-8.17-8.17-2.43-5.742-3.092-15.9-.442-10.38-.442-26.5V82.145q0-16.341.442-26.5.662-10.158 3.092-15.9 2.429-5.74 8.17-8.17 5.742-2.43 15.9-2.87 10.38-.663 26.5-.663zm-16.562 44.166v39.75q0 3.312.441 3.974.663.442 3.975.442v-39.75q0-3.312-.662-3.754-.442-.662-3.754-.662" style="font-size:220.831px;line-height:0;font-family:&quot;Badeen Display&quot;;-inkscape-font-specification:&quot;Badeen Display, Normal&quot;;text-align:center;baseline-shift:baseline;text-anchor:middle;display:inline;overflow:visible;vector-effect:none;fill:#fff;stop-color:#000;stop-opacity:1"/><path d="M90.646 27.5q-16.13 0-26.535.664c-6.804.297-12.156 1.254-16.076 2.912-3.943 1.669-6.79 4.516-8.459 8.46-1.657 3.916-2.689 9.265-3.133 16.073v.012Q36 65.797 36 82.145v46.375q0 16.127.443 26.523v.012c.444 6.808 1.476 12.159 3.133 16.076 1.669 3.944 4.516 6.79 8.46 8.46 3.916 1.656 9.267 2.688 16.075 3.132h.012q10.396.443 26.524.443h28.707q16.347 0 26.523-.443h.012c6.808-.444 12.16-1.476 16.076-3.133 3.944-1.668 6.79-4.515 8.46-8.459 1.659-3.922 2.615-9.277 2.911-16.088.442-6.936.664-15.774.664-26.523V82.145c0-10.897-.222-19.734-.664-26.524-.296-6.81-1.253-12.163-2.912-16.086-1.669-3.943-4.516-6.79-8.46-8.459-3.921-1.66-9.345-2.615-16.296-2.912q-10.184-.664-26.314-.664Zm0 1.084h28.708q16.112 0 26.244.66l.006.002h.006c6.881.293 12.203 1.25 15.933 2.828 3.712 1.57 6.313 4.171 7.883 7.883 1.58 3.733 2.535 8.98 2.828 15.713v.012q.661 10.131.662 26.463v46.375q0 16.111-.662 26.464v.012c-.293 6.734-1.249 11.98-2.828 15.713-1.57 3.712-4.17 6.313-7.883 7.883-3.738 1.582-8.989 2.61-15.724 3.049q-10.138.441-26.465.441H90.646q-16.105 0-26.464-.441c-6.736-.44-11.987-1.467-15.725-3.049-3.712-1.57-6.312-4.17-7.883-7.883-1.581-3.738-2.61-8.988-3.049-15.724q-.44-10.36-.441-26.465V82.145q0-16.327.441-26.463c.44-6.736 1.468-11.987 3.05-15.725 1.57-3.712 4.17-6.312 7.882-7.883 3.733-1.58 8.98-2.535 15.713-2.828h.006l.006-.002q10.353-.66 26.464-.66m11.604 43.082v40.291c0 1.116.036 2.016.113 2.711s.157 1.17.42 1.564l.059.092.092.059c.394.263.869.342 1.564.42s1.595.113 2.711.113h.541V76.625c0-1.122-.054-2.01-.174-2.69-.112-.633-.275-1.09-.681-1.414-.324-.406-.78-.57-1.415-.681-.679-.12-1.567-.174-2.689-.174zm1.084 1.12c.767.018 1.511.043 1.959.122.572.101.829.303.803.264l.058.09.092.06c-.04-.026.163.23.264.801.1.572.156 1.416.156 2.502v39.184c-.789-.013-1.551-.03-2.049-.084-.558-.062-.848-.167-.96-.215-.049-.112-.153-.404-.216-.963-.07-.63-.107-1.498-.107-2.59z" style="font-size:220.831px;line-height:0;font-family:&quot;Badeen Display&quot;;-inkscape-font-specification:&quot;Badeen Display, Normal&quot;;text-align:center;baseline-shift:baseline;text-anchor:middle;display:inline;overflow:visible;vector-effect:none;fill:#fff;stop-color:#000;stop-opacity:1"/></g></svg>